<svg xmlns="http://www.w3.org/2000/svg" xmlns:xlink="http://www.w3.org/1999/xlink" width="500" zoomAndPan="magnify" viewBox="0 0 375 374.999991" height="500" preserveAspectRatio="xMidYMid meet" version="1.0"><defs><g/><clipPath id="0fd96eceb7"><path d="M 8.132812 0 L 367 0 L 367 375 L 8.132812 375 Z M 8.132812 0 " clip-rule="nonzero"/></clipPath><clipPath id="75a0d4c3cb"><path d="M 187.5 0 L 366.867188 90.914062 L 366.867188 284.085938 L 187.5 375 L 8.132812 284.085938 L 8.132812 90.914062 L 187.5 0 " clip-rule="nonzero"/></clipPath></defs><g clip-path="url(#0fd96eceb7)"><g clip-path="url(#75a0d4c3cb)"><path fill="#020c1b" d="M 8.132812 0 L 366.105469 0 L 366.105469 375.019531 L 8.132812 375.019531 Z M 8.132812 0 " fill-opacity="1" fill-rule="nonzero"/></g></g><g fill="#ffffff" fill-opacity="1"><g transform="translate(126.311718, 276.602183)"><g><path d="M 8.625 0 L 8.625 -5.3125 L 26.8125 -6.5 L 26.8125 -162.078125 L 8.625 -163.265625 L 8.625 -168.578125 L 75.25 -168.578125 L 75.25 -163.265625 L 57.0625 -162.078125 L 57.0625 -90.25 L 57.296875 -90.25 L 124.28125 -162.078125 L 109.03125 -163.265625 L 109.03125 -168.578125 L 147.3125 -168.578125 L 147.3125 -163.265625 L 133.484375 -162.078125 L 78.5625 -104.078125 L 153.578125 -6.5 L 166.328125 -5.3125 L 166.328125 0 L 98.875 0 L 98.875 -5.3125 L 114.109375 -6.5 L 57.296875 -84.109375 L 57.0625 -84.109375 L 57.0625 -6.5 L 75.25 -5.3125 L 75.25 0 Z M 8.625 0 "/></g></g></g><g fill="#64ffda" fill-opacity="1"><g transform="translate(94.409506, 262.237572)"><g><path d="M 55.921875 -136.828125 C 51.253906 -136.828125 47.148438 -136.273438 43.609375 -135.171875 C 40.078125 -134.078125 37.113281 -132.523438 34.71875 -130.515625 C 32.320312 -128.503906 30.519531 -126.085938 29.3125 -123.265625 C 28.113281 -120.441406 27.515625 -117.347656 27.515625 -113.984375 C 27.515625 -111.578125 27.835938 -109.207031 28.484375 -106.875 C 29.140625 -104.539062 30.535156 -102.15625 32.671875 -99.71875 C 34.816406 -97.289062 37.914062 -94.78125 41.96875 -92.1875 C 46.019531 -89.601562 51.476562 -86.816406 58.34375 -83.828125 C 66.257812 -80.203125 72.957031 -76.800781 78.4375 -73.625 C 83.914062 -70.445312 88.367188 -67.070312 91.796875 -63.5 C 95.234375 -59.9375 97.710938 -55.929688 99.234375 -51.484375 C 100.765625 -47.046875 101.53125 -41.75 101.53125 -35.59375 C 101.53125 -30.925781 100.585938 -26.257812 98.703125 -21.59375 C 96.828125 -16.925781 93.992188 -12.742188 90.203125 -9.046875 C 86.410156 -5.347656 81.644531 -2.347656 75.90625 -0.046875 C 70.164062 2.253906 63.4375 3.40625 55.71875 3.40625 C 47.164062 3.40625 39.96875 2.609375 34.125 1.015625 C 28.289062 -0.566406 23.609375 -2.625 20.078125 -5.15625 C 16.546875 -7.6875 14 -10.554688 12.4375 -13.765625 C 10.882812 -16.972656 10.109375 -20.195312 10.109375 -23.4375 C 10.109375 -25.570312 10.429688 -27.5625 11.078125 -29.40625 C 11.734375 -31.257812 12.691406 -32.882812 13.953125 -34.28125 C 15.222656 -35.675781 16.78125 -36.773438 18.625 -37.578125 C 20.46875 -38.390625 22.554688 -38.796875 24.890625 -38.796875 C 27.035156 -38.796875 28.984375 -38.421875 30.734375 -37.671875 C 32.484375 -36.929688 33.957031 -35.929688 35.15625 -34.671875 C 36.351562 -33.410156 37.289062 -31.921875 37.96875 -30.203125 C 38.65625 -28.484375 39 -26.617188 39 -24.609375 C 39 -20.003906 37.664062 -16.535156 35 -14.203125 C 32.34375 -11.867188 28.910156 -10.703125 24.703125 -10.703125 L 24.703125 -10.3125 C 25.148438 -9.789062 26.039062 -9.078125 27.375 -8.171875 C 28.707031 -7.265625 30.554688 -6.351562 32.921875 -5.4375 C 35.285156 -4.53125 38.203125 -3.738281 41.671875 -3.0625 C 45.140625 -2.382812 49.238281 -2.046875 53.96875 -2.046875 C 57.863281 -2.046875 61.738281 -2.5625 65.59375 -3.59375 C 69.457031 -4.632812 72.894531 -6.125 75.90625 -8.0625 C 78.914062 -10.007812 81.359375 -12.378906 83.234375 -15.171875 C 85.117188 -17.960938 86.0625 -21.109375 86.0625 -24.609375 C 86.0625 -27.585938 85.507812 -30.375 84.40625 -32.96875 C 83.3125 -35.5625 81.238281 -38.203125 78.1875 -40.890625 C 75.144531 -43.585938 70.914062 -46.472656 65.5 -49.546875 C 60.082031 -52.628906 53.03125 -56.113281 44.34375 -60 C 37.925781 -62.726562 32.660156 -65.726562 28.546875 -69 C 24.429688 -72.269531 21.1875 -75.738281 18.8125 -79.40625 C 16.445312 -83.070312 14.8125 -86.894531 13.90625 -90.875 C 13 -94.863281 12.546875 -98.96875 12.546875 -103.1875 C 12.546875 -108.5 13.515625 -113.519531 15.453125 -118.25 C 17.398438 -122.988281 20.222656 -127.125 23.921875 -130.65625 C 27.617188 -134.1875 32.171875 -136.988281 37.578125 -139.0625 C 42.992188 -141.144531 49.171875 -142.1875 56.109375 -142.1875 C 62.785156 -142.1875 68.601562 -141.40625 73.5625 -139.84375 C 78.53125 -138.289062 82.632812 -136.234375 85.875 -133.671875 C 89.113281 -131.109375 91.539062 -128.125 93.15625 -124.71875 C 94.78125 -121.320312 95.59375 -117.773438 95.59375 -114.078125 C 95.59375 -112.128906 95.269531 -110.265625 94.625 -108.484375 C 93.976562 -106.703125 93.035156 -105.144531 91.796875 -103.8125 C 90.566406 -102.488281 89.046875 -101.421875 87.234375 -100.609375 C 85.421875 -99.796875 83.347656 -99.390625 81.015625 -99.390625 C 78.867188 -99.390625 76.921875 -99.742188 75.171875 -100.453125 C 73.421875 -101.171875 71.910156 -102.144531 70.640625 -103.375 C 69.378906 -104.601562 68.410156 -106.0625 67.734375 -107.75 C 67.054688 -109.4375 66.71875 -111.285156 66.71875 -113.296875 C 66.71875 -115.566406 67.101562 -117.59375 67.875 -119.375 C 68.65625 -121.15625 69.707031 -122.644531 71.03125 -123.84375 C 72.363281 -125.050781 73.9375 -125.960938 75.75 -126.578125 C 77.570312 -127.191406 79.519531 -127.5 81.59375 -127.5 L 81.59375 -127.890625 C 81.207031 -128.335938 80.429688 -129.0625 79.265625 -130.0625 C 78.097656 -131.070312 76.472656 -132.078125 74.390625 -133.078125 C 72.316406 -134.085938 69.753906 -134.960938 66.703125 -135.703125 C 63.660156 -136.453125 60.066406 -136.828125 55.921875 -136.828125 Z M 55.921875 -136.828125 "/></g></g></g></svg>